HIERARCHY
ROOT Hips
{
	OFFSET 0.000000 0.000000 0.000000
	CHANNELS 6 Xposition Yposition Zposition Xrotation Yrotation Zrotation
	JOINT Thigh.L
	{
		OFFSET 0.054046 0.031244 -0.092002
		CHANNELS 3 Xrotation Yrotation Zrotation
		JOINT Shin.L
		{
			OFFSET 0.053690 0.016399 -0.415591
			CHANNELS 3 Xrotation Yrotation Zrotation
			JOINT Foot.L
			{
				OFFSET -0.041485 0.033064 -0.436536
				CHANNELS 3 Xrotation Yrotation Zrotation
				JOINT Toe.L
				{
					OFFSET 0.044922 -0.120190 -0.064720
					CHANNELS 3 Xrotation Yrotation Zrotation
					End Site
					{
						OFFSET 0.000000 0.050000 0.000000
					}
				}
			}
		}
	}
	JOINT Thigh.R
	{
		OFFSET -0.059377 0.028530 -0.102388
		CHANNELS 3 Xrotation Yrotation Zrotation
		JOINT Shin.R
		{
			OFFSET -0.043069 0.021818 -0.399208
			CHANNELS 3 Xrotation Yrotation Zrotation
			JOINT Foot.R
			{
				OFFSET 0.015624 0.021512 -0.445620
				CHANNELS 3 Xrotation Yrotation Zrotation
				JOINT Toe.R
				{
					OFFSET -0.037250 -0.120932 -0.064591
					CHANNELS 3 Xrotation Yrotation Zrotation
					End Site
					{
						OFFSET 0.000000 0.050000 0.000000
					}
				}
			}
		}
	}
	JOINT Spine
	{
		OFFSET -0.001988 0.018950 0.109139
		CHANNELS 3 Xrotation Yrotation Zrotation
		JOINT Spine.2
		{
			OFFSET 0.006637 0.002097 0.133498
			CHANNELS 3 Xrotation Yrotation Zrotation
			JOINT Chest
			{
				OFFSET -0.010379 -0.023445 0.049355
				CHANNELS 3 Xrotation Yrotation Zrotation
				JOINT Neck
				{
					OFFSET -0.009481 0.029353 0.165135
					CHANNELS 3 Xrotation Yrotation Zrotation
					JOINT Head
					{
						OFFSET 0.022434 -0.021985 0.169035
						CHANNELS 3 Xrotation Yrotation Zrotation
						End Site
						{
							OFFSET 0.000000 0.050000 0.000000
						}
					}
				}
				JOINT Clavicle.L
				{
					OFFSET 0.043733 0.008346 0.084306
					CHANNELS 3 Xrotation Yrotation Zrotation
					JOINT UpperArm.L
					{
						OFFSET 0.107907 0.014178 0.061564
						CHANNELS 3 Xrotation Yrotation Zrotation
						JOINT ForeArm.L
						{
							OFFSET 0.266507 0.035372 -0.076419
							CHANNELS 3 Xrotation Yrotation Zrotation
							JOINT Hand.L
							{
								OFFSET 0.265592 0.006027 0.021364
								CHANNELS 3 Xrotation Yrotation Zrotation
								JOINT Thumb1.L
								{
									OFFSET 0.154583 0.002714 0.009619
									CHANNELS 3 Xrotation Yrotation Zrotation
									JOINT Thumb2.L
									{
										OFFSET 0.029896 0.000678 0.002405
										CHANNELS 3 Xrotation Yrotation Zrotation
										End Site
										{
											OFFSET 0.024913 0.000565 0.002004
										}
									}
								}
								JOINT Index1.L
								{
									OFFSET 0.137583 0.002714 0.009619
									CHANNELS 3 Xrotation Yrotation Zrotation
									JOINT Index2.L
									{
										OFFSET 0.029896 0.000678 0.002405
										CHANNELS 3 Xrotation Yrotation Zrotation
										JOINT Index3.L
										{
											OFFSET 0.021924 0.000498 0.001764
											CHANNELS 3 Xrotation Yrotation Zrotation
											End Site
											{
												OFFSET 0.017937 0.000407 0.001443
											}
										}
									}
								}
								JOINT Middle1.L
								{
									OFFSET 0.119583 0.002714 0.009619
									CHANNELS 3 Xrotation Yrotation Zrotation
									JOINT Middle2.L
									{
										OFFSET 0.030892 0.000701 0.002485
										CHANNELS 3 Xrotation Yrotation Zrotation
										JOINT Middle3.L
										{
											OFFSET 0.021924 0.000498 0.001764
											CHANNELS 3 Xrotation Yrotation Zrotation
											End Site
											{
												OFFSET 0.017937 0.000407 0.001443
											}
										}
									}
								}
								JOINT Ring1.L
								{
									OFFSET 0.101583 0.002714 0.009619
									CHANNELS 3 Xrotation Yrotation Zrotation
									JOINT Ring2.L
									{
										OFFSET 0.028899 0.000656 0.002325
										CHANNELS 3 Xrotation Yrotation Zrotation
										JOINT Ring3.L
										{
											OFFSET 0.019931 0.000452 0.001603
											CHANNELS 3 Xrotation Yrotation Zrotation
											End Site
											{
												OFFSET 0.016941 0.000384 0.001363
											}
										}
									}
								}
								JOINT Pinky1.L
								{
									OFFSET 0.085583 0.002714 0.009619
									CHANNELS 3 Xrotation Yrotation Zrotation
									JOINT Pinky2.L
									{
										OFFSET 0.023917 0.000543 0.001924
										CHANNELS 3 Xrotation Yrotation Zrotation
										JOINT Pinky3.L
										{
											OFFSET 0.016941 0.000384 0.001363
											CHANNELS 3 Xrotation Yrotation Zrotation
											End Site
											{
												OFFSET 0.013951 0.000317 0.001122
											}
										}
									}
								}
							}
						}
					}
				}
				JOINT Clavicle.R
				{
					OFFSET -0.041768 0.014449 0.083719
					CHANNELS 3 Xrotation Yrotation Zrotation
					JOINT UpperArm.R
					{
						OFFSET -0.093223 0.009236 0.057352
						CHANNELS 3 Xrotation Yrotation Zrotation
						JOINT ForeArm.R
						{
							OFFSET -0.282741 0.022575 -0.043639
							CHANNELS 3 Xrotation Yrotation Zrotation
							JOINT Hand.R
							{
								OFFSET -0.262253 0.018657 -0.003430
								CHANNELS 3 Xrotation Yrotation Zrotation
								JOINT Thumb1.R
								{
									OFFSET -0.154687 0.008515 -0.001565
									CHANNELS 3 Xrotation Yrotation Zrotation
									JOINT Thumb2.R
									{
										OFFSET -0.029922 0.002129 -0.000391
										CHANNELS 3 Xrotation Yrotation Zrotation
										End Site
										{
											OFFSET -0.024935 0.001774 -0.000326
										}
									}
								}
								JOINT Index1.R
								{
									OFFSET -0.137687 0.008515 -0.001565
									CHANNELS 3 Xrotation Yrotation Zrotation
									JOINT Index2.R
									{
										OFFSET -0.029922 0.002129 -0.000391
										CHANNELS 3 Xrotation Yrotation Zrotation
										JOINT Index3.R
										{
											OFFSET -0.021943 0.001561 -0.000287
											CHANNELS 3 Xrotation Yrotation Zrotation
											End Site
											{
												OFFSET -0.017953 0.001277 -0.000235
											}
										}
									}
								}
								JOINT Middle1.R
								{
									OFFSET -0.119687 0.008515 -0.001565
									CHANNELS 3 Xrotation Yrotation Zrotation
									JOINT Middle2.R
									{
										OFFSET -0.030919 0.002200 -0.000404
										CHANNELS 3 Xrotation Yrotation Zrotation
										JOINT Middle3.R
										{
											OFFSET -0.021943 0.001561 -0.000287
											CHANNELS 3 Xrotation Yrotation Zrotation
											End Site
											{
												OFFSET -0.017953 0.001277 -0.000235
											}
										}
									}
								}
								JOINT Ring1.R
								{
									OFFSET -0.101687 0.008515 -0.001565
									CHANNELS 3 Xrotation Yrotation Zrotation
									JOINT Ring2.R
									{
										OFFSET -0.028924 0.002058 -0.000378
										CHANNELS 3 Xrotation Yrotation Zrotation
										JOINT Ring3.R
										{
											OFFSET -0.019948 0.001419 -0.000261
											CHANNELS 3 Xrotation Yrotation Zrotation
											End Site
											{
												OFFSET -0.016956 0.001206 -0.000222
											}
										}
									}
								}
								JOINT Pinky1.R
								{
									OFFSET -0.085687 0.008515 -0.001565
									CHANNELS 3 Xrotation Yrotation Zrotation
									JOINT Pinky2.R
									{
										OFFSET -0.023937 0.001703 -0.000313
										CHANNELS 3 Xrotation Yrotation Zrotation
										JOINT Pinky3.R
										{
											OFFSET -0.016956 0.001206 -0.000222
											CHANNELS 3 Xrotation Yrotation Zrotation
											End Site
											{
												OFFSET -0.013964 0.000993 -0.000183
											}
										}
									}
								}
							}
						}
					}
				}
			}
		}
	}
}
MOTION
Frames: 4
Frame Time: 0.03333333
-0.003235 -0.053211 1.123515 -8.044822 0.978174 -0.431797 4.169942 0.996135 -0.281096 7.143069 0.380311 -5.389355 -5.221286 0.207287 9.169186 3.046556 -3.739536 0.402198 2.394741 -1.262760 0.660661 9.604124 0.592874 2.530602 -2.808540 -1.448555 -4.193768 1.047142 -2.007342 -1.056600 2.559861 -0.160871 3.452175 7.037141 -4.184081 -3.075225 -5.521157 2.857446 1.212038 15.608384 3.686779 1.771211 12.143142 0.214782 2.960418 8.883519 23.611102 -1.442588 17.121909 47.962025 -21.785528 11.755073 -4.723495 -20.391670 4.197309 -4.754812 -12.390160 0.000000 0.000000 0.000000 0.000000 0.000000 0.000000 0.000000 0.000000 0.000000 0.000000 0.000000 0.000000 0.000000 0.000000 0.000000 0.000000 0.000000 0.000000 0.000000 0.000000 0.000000 0.000000 0.000000 0.000000 0.000000 0.000000 0.000000 0.000000 0.000000 0.000000 0.000000 0.000000 0.000000 0.000000 0.000000 0.000000 0.000000 0.000000 0.000000 0.000000 0.000000 0.000000 6.506000 -16.863484 5.845139 26.088094 -52.191230 25.265188 10.268862 8.015002 24.562429 4.181168 3.409493 8.011995 0.000000 0.000000 0.000000 0.000000 0.000000 0.000000 0.000000 0.000000 0.000000 0.000000 0.000000 0.000000 0.000000 0.000000 0.000000 0.000000 0.000000 0.000000 0.000000 0.000000 0.000000 0.000000 0.000000 0.000000 0.000000 0.000000 0.000000 0.000000 0.000000 0.000000 0.000000 0.000000 0.000000 0.000000 0.000000 0.000000 0.000000 0.000000 0.000000 0.000000 0.000000 0.000000
-0.002533 -0.053562 1.123654 -8.196000 0.949328 -0.428854 4.436995 1.014806 -0.258928 7.015540 0.337042 -5.406939 -5.231741 0.234084 9.172962 3.075163 -3.715550 0.401638 2.624606 -1.295984 0.712572 9.568683 0.634818 2.545654 -2.854234 -1.377720 -4.237782 1.039937 -1.970494 -1.056989 2.440439 -0.133049 3.439853 7.107454 -4.201200 -3.106200 -5.548591 2.902151 1.200597 15.700146 3.672699 1.770393 12.153112 0.240439 3.008852 8.886335 23.613855 -1.372981 17.055427 47.928824 -21.651089 11.654732 -4.695259 -20.364884 4.063039 -4.669544 -12.409449 0.000000 0.000000 0.000000 0.000000 0.000000 0.000000 0.000000 0.000000 0.000000 0.000000 0.000000 0.000000 0.000000 0.000000 0.000000 0.000000 0.000000 0.000000 0.000000 0.000000 0.000000 0.000000 0.000000 0.000000 0.000000 0.000000 0.000000 0.000000 0.000000 0.000000 0.000000 0.000000 0.000000 0.000000 0.000000 0.000000 0.000000 0.000000 0.000000 0.000000 0.000000 0.000000 6.486370 -16.938854 5.788705 26.191963 -52.233023 25.246357 10.287278 8.046556 24.650748 4.095648 3.301267 8.069135 0.000000 0.000000 0.000000 0.000000 0.000000 0.000000 0.000000 0.000000 0.000000 0.000000 0.000000 0.000000 0.000000 0.000000 0.000000 0.000000 0.000000 0.000000 0.000000 0.000000 0.000000 0.000000 0.000000 0.000000 0.000000 0.000000 0.000000 0.000000 0.000000 0.000000 0.000000 0.000000 0.000000 0.000000 0.000000 0.000000 0.000000 0.000000 0.000000 0.000000 0.000000 0.000000
-0.001679 -0.052825 1.123709 -8.269410 0.933196 -0.465503 4.667737 0.999378 -0.248928 6.878169 0.319518 -5.422521 -5.215620 0.202305 9.173500 3.091367 -3.680424 0.406796 2.837874 -1.335282 0.739188 9.468091 0.651651 2.607622 -2.890600 -1.321897 -4.274050 1.027332 -1.970624 -1.056927 2.277120 -0.127844 3.444665 7.170660 -4.207290 -3.106549 -5.518211 2.940041 1.185497 15.708459 3.618744 1.753360 12.143521 0.274320 2.969512 8.835645 23.626411 -1.244606 17.046084 47.879034 -21.499971 11.577195 -4.698446 -20.390787 3.975504 -4.564302 -12.428407 0.000000 0.000000 0.000000 0.000000 0.000000 0.000000 0.000000 0.000000 0.000000 0.000000 0.000000 0.000000 0.000000 0.000000 0.000000 0.000000 0.000000 0.000000 0.000000 0.000000 0.000000 0.000000 0.000000 0.000000 0.000000 0.000000 0.000000 0.000000 0.000000 0.000000 0.000000 0.000000 0.000000 0.000000 0.000000 0.000000 0.000000 0.000000 0.000000 0.000000 0.000000 0.000000 6.454655 -17.042471 5.732739 26.307582 -52.236992 25.150993 10.324994 8.057876 24.834700 4.011538 3.208224 8.126285 0.000000 0.000000 0.000000 0.000000 0.000000 0.000000 0.000000 0.000000 0.000000 0.000000 0.000000 0.000000 0.000000 0.000000 0.000000 0.000000 0.000000 0.000000 0.000000 0.000000 0.000000 0.000000 0.000000 0.000000 0.000000 0.000000 0.000000 0.000000 0.000000 0.000000 0.000000 0.000000 0.000000 0.000000 0.000000 0.000000 0.000000 0.000000 0.000000 0.000000 0.000000 0.000000
-0.001189 -0.052417 1.123710 -8.305575 0.922094 -0.443375 4.814384 0.988629 -0.232229 6.745540 0.297231 -5.405255 -5.208384 0.230746 9.141758 3.114322 -3.629447 0.402791 2.986294 -1.351114 0.768360 9.351490 0.646093 2.651531 -2.874518 -1.289004 -4.287330 1.019477 -1.949286 -1.053725 2.132229 -0.123954 3.460062 7.265471 -4.220122 -3.115660 -5.563811 2.975264 1.183380 15.758989 3.590345 1.728393 12.109881 0.275177 2.964928 8.803184 23.633198 -1.165871 17.079129 47.835062 -21.443506 11.471067 -4.683437 -20.427936 3.922611 -4.508532 -12.470670 0.000000 0.000000 0.000000 0.000000 0.000000 0.000000 0.000000 0.000000 0.000000 0.000000 0.000000 0.000000 0.000000 0.000000 0.000000 0.000000 0.000000 0.000000 0.000000 0.000000 0.000000 0.000000 0.000000 0.000000 0.000000 0.000000 0.000000 0.000000 0.000000 0.000000 0.000000 0.000000 0.000000 0.000000 0.000000 0.000000 0.000000 0.000000 0.000000 0.000000 0.000000 0.000000 6.467446 -17.108651 5.676844 26.367779 -52.225500 25.087427 10.325380 8.026093 24.948350 3.927694 3.140389 8.181318 0.000000 0.000000 0.000000 0.000000 0.000000 0.000000 0.000000 0.000000 0.000000 0.000000 0.000000 0.000000 0.000000 0.000000 0.000000 0.000000 0.000000 0.000000 0.000000 0.000000 0.000000 0.000000 0.000000 0.000000 0.000000 0.000000 0.000000 0.000000 0.000000 0.000000 0.000000 0.000000 0.000000 0.000000 0.000000 0.000000 0.000000 0.000000 0.000000 0.000000 0.000000 0.000000
